<?xml version="1.0" encoding="utf-8"?>
<!-- Generator: Adobe Illustrator 22.0.1, SVG Export Plug-In . SVG Version: 6.00 Build 0)  -->
<svg version="1.1" id="Layer_1" xmlns="http://www.w3.org/2000/svg" xmlns:xlink="http://www.w3.org/1999/xlink" x="0px" y="0px"
	 viewBox="0 0 204.7 107.5" style="enable-background:new 0 0 204.7 107.5;" xml:space="preserve">
<style type="text/css">
	.st0{fill:#231F20;}
	.st1{fill:#FFFFFF;}
	.st2{fill:#1C98FF;}
</style>
<g>
	<g>
		<path class="st0" d="M69.8,76c0-0.7,0.3-1.3,0.8-1.8c0.5-0.5,1.2-0.8,2-0.8c0.8,0,1.5,0.2,2,0.7s0.8,1.1,0.8,1.9
			c0,0.7-0.3,1.4-0.8,1.9c-0.5,0.5-1.2,0.7-2,0.7c-0.8,0-1.5-0.3-2-0.8C70.1,77.3,69.8,76.7,69.8,76z M70.4,81.9h4.3v17.4h-4.3V81.9
			z"/>
		<path class="st0" d="M89.9,86.7c-0.8-1.2-2-1.8-3.4-1.8c-0.6,0-1.1,0.1-1.7,0.4c-0.6,0.3-0.8,0.8-0.8,1.4c0,0.5,0.2,0.9,0.7,1.2
			s1,0.4,1.7,0.6c0.7,0.2,1.5,0.3,2.3,0.5c0.8,0.2,1.6,0.5,2.3,0.8c0.7,0.4,1.3,0.9,1.7,1.5c0.5,0.7,0.7,1.5,0.7,2.7
			c0,1-0.2,1.9-0.7,2.6s-1,1.3-1.7,1.7c-0.7,0.4-1.5,0.7-2.4,0.9c-0.9,0.2-1.8,0.3-2.7,0.3c-1.4,0-2.6-0.2-3.7-0.6S80,98,79.1,97
			l2.9-2.7c0.6,0.6,1.2,1.1,1.8,1.5s1.4,0.6,2.3,0.6c0.3,0,0.6,0,1-0.1s0.7-0.2,0.9-0.4c0.3-0.2,0.5-0.4,0.7-0.6
			c0.2-0.3,0.3-0.5,0.3-0.9c0-0.6-0.2-1-0.7-1.3c-0.5-0.3-1-0.5-1.7-0.7c-0.7-0.2-1.5-0.3-2.3-0.5s-1.6-0.4-2.3-0.8
			c-0.7-0.3-1.3-0.8-1.7-1.5c-0.5-0.6-0.7-1.5-0.7-2.6c0-1,0.2-1.8,0.6-2.5c0.4-0.7,0.9-1.3,1.6-1.8s1.4-0.8,2.2-1
			c0.8-0.2,1.7-0.3,2.6-0.3c1.2,0,2.3,0.2,3.4,0.6c1.1,0.4,2,1.1,2.8,2L89.9,86.7z"/>
		<path class="st0" d="M96.8,90.6c0-1.4,0.2-2.6,0.7-3.7s1.2-2.1,2-2.9c0.8-0.8,1.8-1.4,3-1.8c1.2-0.4,2.4-0.7,3.7-0.7
			c1.3,0,2.5,0.2,3.7,0.7c1.2,0.4,2.2,1,3,1.8c0.8,0.8,1.5,1.8,2,2.9c0.5,1.1,0.7,2.4,0.7,3.7s-0.2,2.6-0.7,3.7
			c-0.5,1.1-1.2,2.1-2,2.9c-0.8,0.8-1.8,1.4-3,1.8c-1.2,0.4-2.4,0.7-3.7,0.7c-1.3,0-2.5-0.2-3.7-0.7c-1.2-0.4-2.2-1-3-1.8
			c-0.8-0.8-1.5-1.8-2-2.9C97,93.2,96.8,91.9,96.8,90.6z M101.1,90.6c0,0.7,0.1,1.3,0.3,2c0.2,0.6,0.6,1.2,1,1.7s1,0.9,1.6,1.2
			c0.6,0.3,1.3,0.4,2.1,0.4c0.8,0,1.5-0.1,2.1-0.4c0.6-0.3,1.2-0.7,1.6-1.2s0.8-1,1-1.7c0.2-0.6,0.3-1.3,0.3-2c0-0.7-0.1-1.3-0.3-2
			c-0.2-0.6-0.6-1.2-1-1.7c-0.4-0.5-1-0.9-1.6-1.2c-0.6-0.3-1.3-0.4-2.1-0.4c-0.8,0-1.5,0.1-2.1,0.4c-0.6,0.3-1.2,0.7-1.6,1.2
			c-0.4,0.5-0.8,1-1,1.7C101.2,89.2,101.1,89.9,101.1,90.6z"/>
		<path class="st0" d="M120.6,81.9h4.1v2.6h0.1c0.6-1.1,1.5-1.8,2.5-2.3c1.1-0.5,2.2-0.7,3.4-0.7c1.3,0,2.5,0.2,3.6,0.7
			c1.1,0.5,2,1.1,2.7,1.9c0.7,0.8,1.3,1.8,1.7,2.9c0.4,1.1,0.6,2.3,0.6,3.6c0,1.3-0.2,2.5-0.6,3.6c-0.4,1.1-1,2.1-1.7,2.9
			c-0.7,0.8-1.6,1.5-2.7,1.9c-1,0.5-2.2,0.7-3.4,0.7c-0.8,0-1.5-0.1-2.2-0.3c-0.6-0.2-1.2-0.4-1.7-0.7c-0.5-0.3-0.9-0.5-1.2-0.9
			c-0.3-0.3-0.6-0.6-0.8-0.9h-0.1v10.5h-4.3V81.9z M135,90.6c0-0.7-0.1-1.3-0.3-2c-0.2-0.6-0.6-1.2-1-1.7c-0.4-0.5-1-0.9-1.6-1.2
			c-0.6-0.3-1.3-0.4-2.1-0.4c-0.8,0-1.5,0.1-2.1,0.4c-0.6,0.3-1.2,0.7-1.6,1.2c-0.4,0.5-0.8,1-1,1.7c-0.2,0.6-0.3,1.3-0.3,2
			c0,0.7,0.1,1.3,0.3,2c0.2,0.6,0.6,1.2,1,1.7s1,0.9,1.6,1.2c0.6,0.3,1.3,0.4,2.1,0.4c0.8,0,1.5-0.1,2.1-0.4
			c0.6-0.3,1.2-0.7,1.6-1.2s0.8-1,1-1.7C134.9,91.9,135,91.2,135,90.6z"/>
		<path class="st0" d="M148.6,84.3L148.6,84.3c0.4-0.7,1-1.4,1.9-2s2-0.9,3.3-0.9c1.2,0,2.1,0.2,2.9,0.6s1.5,0.9,2,1.5
			c0.5,0.6,0.9,1.4,1.1,2.2c0.2,0.8,0.3,1.7,0.3,2.6v11h-4.3v-8.8c0-0.5,0-1-0.1-1.6c0-0.6-0.2-1.1-0.4-1.7c-0.2-0.5-0.5-1-1-1.3
			c-0.4-0.3-1-0.5-1.8-0.5c-0.7,0-1.3,0.1-1.8,0.4c-0.5,0.2-0.9,0.6-1.2,1c-0.3,0.4-0.6,0.9-0.7,1.4c-0.1,0.5-0.2,1.1-0.2,1.7v9.5
			h-4.3V71.9h4.3V84.3z"/>
		<path class="st0" d="M169.5,92.1c0.1,1.3,0.7,2.3,1.5,3c0.9,0.7,1.9,1.1,3.1,1.1c1.1,0,2-0.2,2.7-0.7c0.7-0.4,1.4-1,1.9-1.7
			l3.1,2.4c-1,1.3-2.1,2.1-3.4,2.7c-1.3,0.5-2.6,0.8-3.9,0.8c-1.3,0-2.5-0.2-3.7-0.7c-1.2-0.4-2.2-1-3-1.8c-0.8-0.8-1.5-1.8-2-2.9
			c-0.5-1.1-0.7-2.4-0.7-3.7s0.2-2.6,0.7-3.7s1.2-2.1,2-2.9c0.8-0.8,1.8-1.4,3-1.8c1.2-0.4,2.4-0.7,3.7-0.7c1.2,0,2.3,0.2,3.3,0.6
			c1,0.4,1.9,1,2.6,1.8c0.7,0.8,1.3,1.8,1.7,2.9s0.6,2.5,0.6,4v1.2H169.5z M178.4,88.8c0-1.3-0.4-2.3-1.2-3
			c-0.8-0.7-1.8-1.1-3.2-1.1c-1.3,0-2.3,0.4-3.1,1.1s-1.2,1.7-1.4,3H178.4z"/>
		<path class="st0" d="M192.1,89.9l-6-8h5.3l3.5,5.2l3.8-5.2h5l-5.9,8l7,9.3h-5.3l-4.5-6.2l-4.6,6.2h-5.1L192.1,89.9z"/>
	</g>
	<g>
		<path class="st2" d="M29.8,0C12.6,0,0,12.8,0,28.6v70.7h59.8V28.6C59.8,12.8,47.1,0,29.8,0z"/>
		<circle class="st1" cx="29.8" cy="31.2" r="18.8"/>
		<circle class="st2" cx="29.8" cy="31.2" r="14.9"/>
		<circle class="st1" cx="29.8" cy="31.2" r="5"/>
		<polygon class="st1" points="0,100.8 25.5,39.6 34.2,39.6 59.8,100.8 		"/>
	</g>
</g>
</svg>
